solid ascii
  facet normal -1.000000e+000 -4.440892e-016 0.000000e+000
    outer loop
      vertex   0.000000e+000 2.220446e-015 8.000000e+000
      vertex   -2.220446e-015 5.000000e+000 8.000000e+000
      vertex   0.000000e+000 2.220446e-015 0.000000e+000
    endloop
  endfacet
  facet normal -1.000000e+000 -1.776357e-016 -1.665335e-016
    outer loop
      vertex   0.000000e+000 2.220446e-015 0.000000e+000
      vertex   -2.220446e-015 5.000000e+000 8.000000e+000
      vertex   -6.661338e-015 3.000000e+001 8.000000e+000
    endloop
  endfacet
  facet normal -1.000000e+000 1.332268e-015 0.000000e+000
    outer loop
      vertex   0.000000e+000 3.500000e+001 0.000000e+000
      vertex   -6.661338e-015 3.000000e+001 8.000000e+000
      vertex   0.000000e+000 3.500000e+001 8.000000e+000
    endloop
  endfacet
  facet normal -1.000000e+000 -0.000000e+000 -8.326673e-016
    outer loop
      vertex   0.000000e+000 3.500000e+001 0.000000e+000
      vertex   0.000000e+000 2.220446e-015 0.000000e+000
      vertex   -6.661338e-015 3.000000e+001 8.000000e+000
    endloop
  endfacet
  facet normal -1.000000e+000 -1.776357e-016 0.000000e+000
    outer loop
      vertex   -6.661338e-015 3.000000e+001 8.000000e+000
      vertex   -2.220446e-015 5.000000e+000 8.000000e+000
      vertex   -6.661338e-015 3.000000e+001 1.000000e+001
    endloop
  endfacet
  facet normal -1.000000e+000 -1.776357e-016 0.000000e+000
    outer loop
      vertex   -6.661338e-015 3.000000e+001 1.000000e+001
      vertex   -2.220446e-015 5.000000e+000 8.000000e+000
      vertex   -2.220446e-015 5.000000e+000 1.000000e+001
    endloop
  endfacet
  facet normal -1.000000e+000 0.000000e+000 1.387779e-016
    outer loop
      vertex   0.000000e+000 3.500000e+001 2.600000e+001
      vertex   -2.220446e-015 5.000000e+000 1.000000e+001
      vertex   0.000000e+000 2.220446e-015 2.600000e+001
    endloop
  endfacet
  facet normal -1.000000e+000 -1.776357e-016 4.718448e-016
    outer loop
      vertex   0.000000e+000 3.500000e+001 2.600000e+001
      vertex   -6.661338e-015 3.000000e+001 1.000000e+001
      vertex   -2.220446e-015 5.000000e+000 1.000000e+001
    endloop
  endfacet
  facet normal -1.000000e+000 1.332268e-015 0.000000e+000
    outer loop
      vertex   0.000000e+000 3.500000e+001 2.600000e+001
      vertex   0.000000e+000 3.500000e+001 1.000000e+001
      vertex   -6.661338e-015 3.000000e+001 1.000000e+001
    endloop
  endfacet
  facet normal -1.000000e+000 -4.440892e-016 0.000000e+000
    outer loop
      vertex   -2.220446e-015 5.000000e+000 1.000000e+001
      vertex   0.000000e+000 2.220446e-015 1.000000e+001
      vertex   0.000000e+000 2.220446e-015 2.600000e+001
    endloop
  endfacet
  facet normal 1.000000e+000 0.000000e+000 0.000000e+000
    outer loop
      vertex   1.000000e+000 3.600000e+001 6.400000e+001
      vertex   1.000000e+000 -1.000000e+000 6.400000e+001
      vertex   1.000000e+000 3.600000e+001 3.200000e+001
    endloop
  endfacet
  facet normal 1.000000e+000 0.000000e+000 0.000000e+000
    outer loop
      vertex   1.000000e+000 3.600000e+001 3.200000e+001
      vertex   1.000000e+000 -1.000000e+000 6.400000e+001
      vertex   1.000000e+000 -1.000000e+000 3.200000e+001
    endloop
  endfacet
  facet normal 1.000000e+000 0.000000e+000 0.000000e+000
    outer loop
      vertex   1.000000e+000 3.600000e+001 0.000000e+000
      vertex   1.000000e+000 -1.000000e+000 3.200000e+001
      vertex   1.000000e+000 -1.000000e+000 0.000000e+000
    endloop
  endfacet
  facet normal 1.000000e+000 0.000000e+000 -0.000000e+000
    outer loop
      vertex   1.000000e+000 3.600000e+001 0.000000e+000
      vertex   1.000000e+000 3.600000e+001 3.200000e+001
      vertex   1.000000e+000 -1.000000e+000 3.200000e+001
    endloop
  endfacet
  facet normal -1.000000e+000 0.000000e+000 -4.440892e-016
    outer loop
      vertex   0.000000e+000 2.800000e+001 6.300000e+001
      vertex   0.000000e+000 3.600000e+001 6.300000e+001
      vertex   2.220446e-015 2.800000e+001 5.800000e+001
    endloop
  endfacet
  facet normal -1.000000e+000 -2.775558e-016 -0.000000e+000
    outer loop
      vertex   2.220446e-015 2.800000e+001 5.800000e+001
      vertex   0.000000e+000 3.600000e+001 6.300000e+001
      vertex   0.000000e+000 3.600000e+001 2.800000e+001
    endloop
  endfacet
  facet normal -1.000000e+000 0.000000e+000 8.881784e-016
    outer loop
      vertex   4.440892e-015 2.800000e+001 3.300000e+001
      vertex   0.000000e+000 3.600000e+001 2.800000e+001
      vertex   0.000000e+000 2.800000e+001 2.800000e+001
    endloop
  endfacet
  facet normal -1.000000e+000 -6.106227e-016 -8.881784e-017
    outer loop
      vertex   4.440892e-015 2.800000e+001 3.300000e+001
      vertex   2.220446e-015 2.800000e+001 5.800000e+001
      vertex   0.000000e+000 3.600000e+001 2.800000e+001
    endloop
  endfacet
  facet normal -1.000000e+000 -0.000000e+000 -8.881784e-017
    outer loop
      vertex   4.440892e-015 2.800000e+001 3.300000e+001
      vertex   4.440892e-015 2.600000e+001 3.300000e+001
      vertex   2.220446e-015 2.800000e+001 5.800000e+001
    endloop
  endfacet
  facet normal -1.000000e+000 0.000000e+000 -8.881784e-017
    outer loop
      vertex   2.220446e-015 2.800000e+001 5.800000e+001
      vertex   4.440892e-015 2.600000e+001 3.300000e+001
      vertex   2.220446e-015 2.600000e+001 5.800000e+001
    endloop
  endfacet
  facet normal -1.000000e+000 1.878839e-016 -8.881784e-017
    outer loop
      vertex   2.220446e-015 2.600000e+001 5.800000e+001
      vertex   4.440892e-015 2.600000e+001 3.300000e+001
      vertex   0.000000e+000 -9.536743e-007 2.800000e+001
    endloop
  endfacet
  facet normal -1.000000e+000 9.912706e-017 -1.189525e-017
    outer loop
      vertex   -4.163337e-016 -9.536743e-007 6.300000e+001
      vertex   2.220446e-015 2.600000e+001 5.800000e+001
      vertex   0.000000e+000 -9.536743e-007 2.800000e+001
    endloop
  endfacet
  facet normal -1.000000e+000 1.601280e-017 -4.440892e-016
    outer loop
      vertex   -4.163337e-016 -9.536743e-007 6.300000e+001
      vertex   0.000000e+000 2.600000e+001 6.300000e+001
      vertex   2.220446e-015 2.600000e+001 5.800000e+001
    endloop
  endfacet
  facet normal -1.000000e+000 6.515638e-023 8.881784e-016
    outer loop
      vertex   4.440892e-015 2.600000e+001 3.300000e+001
      vertex   0.000000e+000 2.600000e+001 2.800000e+001
      vertex   0.000000e+000 -9.536743e-007 2.800000e+001
    endloop
  endfacet
  facet normal 9.912706e-018 9.912706e-018 -1.000000e+000
    outer loop
      vertex   -1.300000e+001 -1.000000e+000 -1.387779e-016
      vertex   0.000000e+000 2.220446e-015 0.000000e+000
      vertex   1.000000e+000 -1.000000e+000 0.000000e+000
    endloop
  endfacet
  facet normal -2.370376e-032 1.387779e-016 -1.000000e+000
    outer loop
      vertex   -1.300000e+001 -1.000000e+000 -1.387779e-016
      vertex   -1.300000e+001 0.000000e+000 0.000000e+000
      vertex   0.000000e+000 2.220446e-015 0.000000e+000
    endloop
  endfacet
  facet normal 0.000000e+000 0.000000e+000 -1.000000e+000
    outer loop
      vertex   0.000000e+000 2.220446e-015 0.000000e+000
      vertex   0.000000e+000 3.500000e+001 0.000000e+000
      vertex   1.000000e+000 -1.000000e+000 0.000000e+000
    endloop
  endfacet
  facet normal 0.000000e+000 0.000000e+000 -1.000000e+000
    outer loop
      vertex   1.000000e+000 -1.000000e+000 0.000000e+000
      vertex   0.000000e+000 3.500000e+001 0.000000e+000
      vertex   1.000000e+000 3.600000e+001 0.000000e+000
    endloop
  endfacet
  facet normal 9.912706e-018 -9.912706e-018 -1.000000e+000
    outer loop
      vertex   1.000000e+000 3.600000e+001 0.000000e+000
      vertex   0.000000e+000 3.500000e+001 0.000000e+000
      vertex   -1.300000e+001 3.600000e+001 -1.387779e-016
    endloop
  endfacet
  facet normal -0.000000e+000 -1.387779e-016 -1.000000e+000
    outer loop
      vertex   -1.300000e+001 3.600000e+001 -1.387779e-016
      vertex   0.000000e+000 3.500000e+001 0.000000e+000
      vertex   -1.300000e+001 3.500000e+001 0.000000e+000
    endloop
  endfacet
  facet normal 0.000000e+000 1.000000e+000 -2.775558e-016
    outer loop
      vertex   -1.300000e+001 2.220446e-015 8.000000e+000
      vertex   0.000000e+000 2.220446e-015 8.000000e+000
      vertex   -1.300000e+001 0.000000e+000 0.000000e+000
    endloop
  endfacet
  facet normal -1.708036e-016 1.000000e+000 0.000000e+000
    outer loop
      vertex   -1.300000e+001 0.000000e+000 0.000000e+000
      vertex   0.000000e+000 2.220446e-015 8.000000e+000
      vertex   0.000000e+000 2.220446e-015 0.000000e+000
    endloop
  endfacet
  facet normal 0.000000e+000 -7.335956e-008 -1.000000e+000
    outer loop
      vertex   -1.300000e+001 2.600000e+001 6.300000e+001
      vertex   0.000000e+000 2.600000e+001 6.300000e+001
      vertex   -1.300000e+001 -9.536743e-007 6.300000e+001
    endloop
  endfacet
  facet normal 0.000000e+000 -7.335956e-008 -1.000000e+000
    outer loop
      vertex   -1.300000e+001 -9.536743e-007 6.300000e+001
      vertex   0.000000e+000 2.600000e+001 6.300000e+001
      vertex   -4.163337e-016 -9.536743e-007 6.300000e+001
    endloop
  endfacet
  facet normal 0.000000e+000 0.000000e+000 -1.000000e+000
    outer loop
      vertex   0.000000e+000 2.800000e+001 6.300000e+001
      vertex   -1.300000e+001 2.800000e+001 6.300000e+001
      vertex   0.000000e+000 3.600000e+001 6.300000e+001
    endloop
  endfacet
  facet normal -1.467191e-007 2.384186e-007 -1.000000e+000
    outer loop
      vertex   0.000000e+000 3.600000e+001 6.300000e+001
      vertex   -1.300000e+001 2.800000e+001 6.300000e+001
      vertex   -1.300000e+001 3.600000e+001 6.300000e+001
    endloop
  endfacet
  facet normal 5.465713e-016 1.000000e+000 -0.000000e+000
    outer loop
      vertex   -1.300000e+001 3.600000e+001 6.300000e+001
      vertex   -1.300000e+001 3.600000e+001 6.400000e+001
      vertex   0.000000e+000 3.600000e+001 6.300000e+001
    endloop
  endfacet
  facet normal -6.811971e-008 1.000000e+000 -8.855546e-007
    outer loop
      vertex   0.000000e+000 3.600000e+001 6.300000e+001
      vertex   -1.300000e+001 3.600000e+001 6.400000e+001
      vertex   1.000000e+000 3.600000e+001 6.400000e+001
    endloop
  endfacet
  facet normal -9.536743e-007 1.000000e+000 0.000000e+000
    outer loop
      vertex   1.000000e+000 3.600000e+001 3.200000e+001
      vertex   0.000000e+000 3.600000e+001 6.300000e+001
      vertex   1.000000e+000 3.600000e+001 6.400000e+001
    endloop
  endfacet
  facet normal -9.536743e-007 1.000000e+000 0.000000e+000
    outer loop
      vertex   1.000000e+000 3.600000e+001 3.200000e+001
      vertex   0.000000e+000 3.600000e+001 2.800000e+001
      vertex   0.000000e+000 3.600000e+001 6.300000e+001
    endloop
  endfacet
  facet normal -9.536743e-007 1.000000e+000 0.000000e+000
    outer loop
      vertex   1.000000e+000 3.600000e+001 3.200000e+001
      vertex   1.000000e+000 3.600000e+001 0.000000e+000
      vertex   0.000000e+000 3.600000e+001 2.800000e+001
    endloop
  endfacet
  facet normal -3.376247e-025 1.000000e+000 3.405980e-008
    outer loop
      vertex   0.000000e+000 3.600000e+001 2.800000e+001
      vertex   1.000000e+000 3.600000e+001 0.000000e+000
      vertex   -1.300000e+001 3.600000e+001 -1.387779e-016
    endloop
  endfacet
  facet normal -0.000000e+000 1.000000e+000 3.405980e-008
    outer loop
      vertex   -1.300000e+001 3.600000e+001 2.800000e+001
      vertex   0.000000e+000 3.600000e+001 2.800000e+001
      vertex   -1.300000e+001 3.600000e+001 -1.387779e-016
    endloop
  endfacet
  facet normal -2.452798e-023 -5.154996e-008 1.000000e+000
    outer loop
      vertex   -1.300000e+001 -1.000000e+000 6.400000e+001
      vertex   1.000000e+000 -1.000000e+000 6.400000e+001
      vertex   -1.300000e+001 3.600000e+001 6.400000e+001
    endloop
  endfacet
  facet normal 1.362392e-007 -0.000000e+000 1.000000e+000
    outer loop
      vertex   -1.300000e+001 3.600000e+001 6.400000e+001
      vertex   1.000000e+000 -1.000000e+000 6.400000e+001
      vertex   1.000000e+000 3.600000e+001 6.400000e+001
    endloop
  endfacet
  facet normal -1.000000e+000 8.881784e-015 0.000000e+000
    outer loop
      vertex   -1.300000e+001 -1.000000e+000 3.200000e+001
      vertex   -1.300000e+001 2.220446e-015 1.000000e+001
      vertex   -1.300000e+001 -1.000000e+000 -1.387779e-016
    endloop
  endfacet
  facet normal -1.000000e+000 8.881784e-015 0.000000e+000
    outer loop
      vertex   -1.300000e+001 -1.000000e+000 3.200000e+001
      vertex   -1.300000e+001 2.220446e-015 2.600000e+001
      vertex   -1.300000e+001 2.220446e-015 1.000000e+001
    endloop
  endfacet
  facet normal -1.000000e+000 8.881810e-015 4.235173e-021
    outer loop
      vertex   -1.300000e+001 -1.000000e+000 3.200000e+001
      vertex   -1.300000e+001 -9.536743e-007 2.800000e+001
      vertex   -1.300000e+001 2.220446e-015 2.600000e+001
    endloop
  endfacet
  facet normal -1.000000e+000 8.881793e-015 0.000000e+000
    outer loop
      vertex   -1.300000e+001 -1.000000e+000 3.200000e+001
      vertex   -1.300000e+001 -9.536743e-007 6.300000e+001
      vertex   -1.300000e+001 -9.536743e-007 2.800000e+001
    endloop
  endfacet
  facet normal -1.000000e+000 8.881793e-015 0.000000e+000
    outer loop
      vertex   -1.300000e+001 -1.000000e+000 3.200000e+001
      vertex   -1.300000e+001 -1.000000e+000 6.400000e+001
      vertex   -1.300000e+001 -9.536743e-007 6.300000e+001
    endloop
  endfacet
  facet normal -1.000000e+000 -6.515651e-022 -8.881802e-015
    outer loop
      vertex   -1.300000e+001 -9.536743e-007 6.300000e+001
      vertex   -1.300000e+001 -1.000000e+000 6.400000e+001
      vertex   -1.300000e+001 2.600000e+001 6.300000e+001
    endloop
  endfacet
  facet normal -1.000000e+000 2.400484e-016 -2.400479e-015
    outer loop
      vertex   -1.300000e+001 2.600000e+001 6.300000e+001
      vertex   -1.300000e+001 -1.000000e+000 6.400000e+001
      vertex   -1.300000e+001 3.600000e+001 6.400000e+001
    endloop
  endfacet
  facet normal -1.000000e+000 0.000000e+000 0.000000e+000
    outer loop
      vertex   -1.300000e+001 2.800000e+001 6.300000e+001
      vertex   -1.300000e+001 3.600000e+001 6.400000e+001
      vertex   -1.300000e+001 3.600000e+001 6.300000e+001
    endloop
  endfacet
  facet normal -1.000000e+000 0.000000e+000 0.000000e+000
    outer loop
      vertex   -1.300000e+001 2.800000e+001 6.300000e+001
      vertex   -1.300000e+001 2.600000e+001 6.300000e+001
      vertex   -1.300000e+001 3.600000e+001 6.400000e+001
    endloop
  endfacet
  facet normal -1.000000e+000 0.000000e+000 -3.552714e-015
    outer loop
      vertex   -1.300000e+001 2.800000e+001 6.300000e+001
      vertex   -1.300000e+001 2.600000e+001 5.800000e+001
      vertex   -1.300000e+001 2.600000e+001 6.300000e+001
    endloop
  endfacet
  facet normal -1.000000e+000 -0.000000e+000 -3.552714e-015
    outer loop
      vertex   -1.300000e+001 2.800000e+001 6.300000e+001
      vertex   -1.300000e+001 2.800000e+001 5.800000e+001
      vertex   -1.300000e+001 2.600000e+001 5.800000e+001
    endloop
  endfacet
  facet normal -1.000000e+000 0.000000e+000 -0.000000e+000
    outer loop
      vertex   -1.300000e+001 -9.536743e-007 2.800000e+001
      vertex   -1.300000e+001 2.600000e+001 2.800000e+001
      vertex   -1.300000e+001 2.220446e-015 2.600000e+001
    endloop
  endfacet
  facet normal -1.000000e+000 0.000000e+000 0.000000e+000
    outer loop
      vertex   -1.300000e+001 2.220446e-015 2.600000e+001
      vertex   -1.300000e+001 2.600000e+001 2.800000e+001
      vertex   -1.300000e+001 3.500000e+001 2.600000e+001
    endloop
  endfacet
  facet normal -1.000000e+000 0.000000e+000 0.000000e+000
    outer loop
      vertex   -1.300000e+001 3.500000e+001 2.600000e+001
      vertex   -1.300000e+001 2.600000e+001 2.800000e+001
      vertex   -1.300000e+001 2.800000e+001 2.800000e+001
    endloop
  endfacet
  facet normal -1.000000e+000 -0.000000e+000 0.000000e+000
    outer loop
      vertex   -1.300000e+001 3.600000e+001 2.800000e+001
      vertex   -1.300000e+001 3.500000e+001 2.600000e+001
      vertex   -1.300000e+001 2.800000e+001 2.800000e+001
    endloop
  endfacet
  facet normal -1.000000e+000 -0.000000e+000 0.000000e+000
    outer loop
      vertex   -1.300000e+001 3.600000e+001 2.800000e+001
      vertex   -1.300000e+001 3.500000e+001 1.000000e+001
      vertex   -1.300000e+001 3.500000e+001 2.600000e+001
    endloop
  endfacet
  facet normal -1.000000e+000 -5.709720e-015 3.172064e-016
    outer loop
      vertex   -1.300000e+001 3.600000e+001 2.800000e+001
      vertex   -1.300000e+001 3.600000e+001 -1.387779e-016
      vertex   -1.300000e+001 3.500000e+001 1.000000e+001
    endloop
  endfacet
  facet normal -1.000000e+000 -8.881784e-015 0.000000e+000
    outer loop
      vertex   -1.300000e+001 3.500000e+001 1.000000e+001
      vertex   -1.300000e+001 3.600000e+001 -1.387779e-016
      vertex   -1.300000e+001 3.500000e+001 8.000000e+000
    endloop
  endfacet
  facet normal -1.000000e+000 1.776357e-015 0.000000e+000
    outer loop
      vertex   -1.300000e+001 3.000000e+001 8.000000e+000
      vertex   -1.300000e+001 3.500000e+001 1.000000e+001
      vertex   -1.300000e+001 3.500000e+001 8.000000e+000
    endloop
  endfacet
  facet normal -1.000000e+000 1.776357e-015 0.000000e+000
    outer loop
      vertex   -1.300000e+001 3.000000e+001 8.000000e+000
      vertex   -1.300000e+001 3.000000e+001 1.000000e+001
      vertex   -1.300000e+001 3.500000e+001 1.000000e+001
    endloop
  endfacet
  facet normal -1.000000e+000 0.000000e+000 1.776357e-015
    outer loop
      vertex   -1.300000e+001 2.600000e+001 2.800000e+001
      vertex   -1.300000e+001 2.600000e+001 3.300000e+001
      vertex   -1.300000e+001 2.800000e+001 2.800000e+001
    endloop
  endfacet
  facet normal -1.000000e+000 0.000000e+000 1.776357e-015
    outer loop
      vertex   -1.300000e+001 2.800000e+001 2.800000e+001
      vertex   -1.300000e+001 2.600000e+001 3.300000e+001
      vertex   -1.300000e+001 2.800000e+001 3.300000e+001
    endloop
  endfacet
  facet normal -1.000000e+000 -8.881784e-015 0.000000e+000
    outer loop
      vertex   -1.300000e+001 3.600000e+001 -1.387779e-016
      vertex   -1.300000e+001 3.500000e+001 0.000000e+000
      vertex   -1.300000e+001 3.500000e+001 8.000000e+000
    endloop
  endfacet
  facet normal -1.000000e+000 8.881784e-015 0.000000e+000
    outer loop
      vertex   -1.300000e+001 -1.000000e+000 -1.387779e-016
      vertex   -1.300000e+001 2.220446e-015 1.000000e+001
      vertex   -1.300000e+001 2.220446e-015 8.000000e+000
    endloop
  endfacet
  facet normal -1.000000e+000 1.430511e-006 -1.788139e-007
    outer loop
      vertex   -1.300000e+001 0.000000e+000 0.000000e+000
      vertex   -1.300000e+001 -1.000000e+000 -1.387779e-016
      vertex   -1.300000e+001 2.220446e-015 8.000000e+000
    endloop
  endfacet
  facet normal -1.000000e+000 0.000000e+000 0.000000e+000
    outer loop
      vertex   -1.300000e+001 5.000000e+000 8.000000e+000
      vertex   -1.300000e+001 2.220446e-015 8.000000e+000
      vertex   -1.300000e+001 5.000000e+000 1.000000e+001
    endloop
  endfacet
  facet normal -1.000000e+000 -0.000000e+000 0.000000e+000
    outer loop
      vertex   -1.300000e+001 5.000000e+000 1.000000e+001
      vertex   -1.300000e+001 2.220446e-015 8.000000e+000
      vertex   -1.300000e+001 2.220446e-015 1.000000e+001
    endloop
  endfacet
  facet normal -0.000000e+000 7.335956e-008 1.000000e+000
    outer loop
      vertex   -1.300000e+001 -9.536743e-007 2.800000e+001
      vertex   0.000000e+000 -9.536743e-007 2.800000e+001
      vertex   -1.300000e+001 2.600000e+001 2.800000e+001
    endloop
  endfacet
  facet normal 0.000000e+000 7.335956e-008 1.000000e+000
    outer loop
      vertex   -1.300000e+001 2.600000e+001 2.800000e+001
      vertex   0.000000e+000 -9.536743e-007 2.800000e+001
      vertex   0.000000e+000 2.600000e+001 2.800000e+001
    endloop
  endfacet
  facet normal -4.758099e-016 -1.000000e+000 0.000000e+000
    outer loop
      vertex   1.000000e+000 -1.000000e+000 6.400000e+001
      vertex   -1.300000e+001 -1.000000e+000 6.400000e+001
      vertex   1.000000e+000 -1.000000e+000 3.200000e+001
    endloop
  endfacet
  facet normal -4.758099e-016 -1.000000e+000 -0.000000e+000
    outer loop
      vertex   1.000000e+000 -1.000000e+000 3.200000e+001
      vertex   -1.300000e+001 -1.000000e+000 6.400000e+001
      vertex   -1.300000e+001 -1.000000e+000 3.200000e+001
    endloop
  endfacet
  facet normal -4.758099e-016 -1.000000e+000 -0.000000e+000
    outer loop
      vertex   1.000000e+000 -1.000000e+000 0.000000e+000
      vertex   -1.300000e+001 -1.000000e+000 3.200000e+001
      vertex   -1.300000e+001 -1.000000e+000 -1.387779e-016
    endloop
  endfacet
  facet normal -4.758099e-016 -1.000000e+000 0.000000e+000
    outer loop
      vertex   1.000000e+000 -1.000000e+000 0.000000e+000
      vertex   1.000000e+000 -1.000000e+000 3.200000e+001
      vertex   -1.300000e+001 -1.000000e+000 3.200000e+001
    endloop
  endfacet
  facet normal 0.000000e+000 -0.000000e+000 -1.000000e+000
    outer loop
      vertex   -1.300000e+001 3.500000e+001 2.600000e+001
      vertex   0.000000e+000 3.500000e+001 2.600000e+001
      vertex   -1.300000e+001 2.220446e-015 2.600000e+001
    endloop
  endfacet
  facet normal 0.000000e+000 0.000000e+000 -1.000000e+000
    outer loop
      vertex   -1.300000e+001 2.220446e-015 2.600000e+001
      vertex   0.000000e+000 3.500000e+001 2.600000e+001
      vertex   0.000000e+000 2.220446e-015 2.600000e+001
    endloop
  endfacet
  facet normal -0.000000e+000 1.000000e+000 0.000000e+000
    outer loop
      vertex   -1.300000e+001 2.220446e-015 2.600000e+001
      vertex   0.000000e+000 2.220446e-015 2.600000e+001
      vertex   -1.300000e+001 2.220446e-015 1.000000e+001
    endloop
  endfacet
  facet normal -0.000000e+000 1.000000e+000 0.000000e+000
    outer loop
      vertex   -1.300000e+001 2.220446e-015 1.000000e+001
      vertex   0.000000e+000 2.220446e-015 2.600000e+001
      vertex   0.000000e+000 2.220446e-015 1.000000e+001
    endloop
  endfacet
  facet normal -0.000000e+000 1.000000e+000 0.000000e+000
    outer loop
      vertex   -1.300000e+001 -9.536743e-007 6.300000e+001
      vertex   -4.163337e-016 -9.536743e-007 6.300000e+001
      vertex   -1.300000e+001 -9.536743e-007 2.800000e+001
    endloop
  endfacet
  facet normal -0.000000e+000 1.000000e+000 0.000000e+000
    outer loop
      vertex   -1.300000e+001 -9.536743e-007 2.800000e+001
      vertex   -4.163337e-016 -9.536743e-007 6.300000e+001
      vertex   0.000000e+000 -9.536743e-007 2.800000e+001
    endloop
  endfacet
  facet normal -1.639714e-015 0.000000e+000 -1.000000e+000
    outer loop
      vertex   -1.300000e+001 2.800000e+001 5.800000e+001
      vertex   2.220446e-015 2.800000e+001 5.800000e+001
      vertex   -1.300000e+001 2.600000e+001 5.800000e+001
    endloop
  endfacet
  facet normal -1.639714e-015 -0.000000e+000 -1.000000e+000
    outer loop
      vertex   -1.300000e+001 2.600000e+001 5.800000e+001
      vertex   2.220446e-015 2.800000e+001 5.800000e+001
      vertex   2.220446e-015 2.600000e+001 5.800000e+001
    endloop
  endfacet
  facet normal 0.000000e+000 1.000000e+000 -0.000000e+000
    outer loop
      vertex   2.220446e-015 2.800000e+001 5.800000e+001
      vertex   -1.300000e+001 2.800000e+001 5.800000e+001
      vertex   0.000000e+000 2.800000e+001 6.300000e+001
    endloop
  endfacet
  facet normal 0.000000e+000 1.000000e+000 0.000000e+000
    outer loop
      vertex   0.000000e+000 2.800000e+001 6.300000e+001
      vertex   -1.300000e+001 2.800000e+001 5.800000e+001
      vertex   -1.300000e+001 2.800000e+001 6.300000e+001
    endloop
  endfacet
  facet normal 0.000000e+000 0.000000e+000 1.000000e+000
    outer loop
      vertex   4.440892e-015 2.800000e+001 3.300000e+001
      vertex   -1.300000e+001 2.800000e+001 3.300000e+001
      vertex   4.440892e-015 2.600000e+001 3.300000e+001
    endloop
  endfacet
  facet normal 0.000000e+000 0.000000e+000 1.000000e+000
    outer loop
      vertex   4.440892e-015 2.600000e+001 3.300000e+001
      vertex   -1.300000e+001 2.800000e+001 3.300000e+001
      vertex   -1.300000e+001 2.600000e+001 3.300000e+001
    endloop
  endfacet
  facet normal -0.000000e+000 1.000000e+000 0.000000e+000
    outer loop
      vertex   -1.300000e+001 2.800000e+001 3.300000e+001
      vertex   4.440892e-015 2.800000e+001 3.300000e+001
      vertex   -1.300000e+001 2.800000e+001 2.800000e+001
    endloop
  endfacet
  facet normal -0.000000e+000 1.000000e+000 0.000000e+000
    outer loop
      vertex   -1.300000e+001 2.800000e+001 2.800000e+001
      vertex   4.440892e-015 2.800000e+001 3.300000e+001
      vertex   0.000000e+000 2.800000e+001 2.800000e+001
    endloop
  endfacet
  facet normal -0.000000e+000 -1.000000e+000 -0.000000e+000
    outer loop
      vertex   4.440892e-015 2.600000e+001 3.300000e+001
      vertex   -1.300000e+001 2.600000e+001 3.300000e+001
      vertex   0.000000e+000 2.600000e+001 2.800000e+001
    endloop
  endfacet
  facet normal -0.000000e+000 -1.000000e+000 0.000000e+000
    outer loop
      vertex   0.000000e+000 2.600000e+001 2.800000e+001
      vertex   -1.300000e+001 2.600000e+001 3.300000e+001
      vertex   -1.300000e+001 2.600000e+001 2.800000e+001
    endloop
  endfacet
  facet normal 0.000000e+000 -1.000000e+000 0.000000e+000
    outer loop
      vertex   -1.300000e+001 2.600000e+001 5.800000e+001
      vertex   2.220446e-015 2.600000e+001 5.800000e+001
      vertex   -1.300000e+001 2.600000e+001 6.300000e+001
    endloop
  endfacet
  facet normal 0.000000e+000 -1.000000e+000 0.000000e+000
    outer loop
      vertex   -1.300000e+001 2.600000e+001 6.300000e+001
      vertex   2.220446e-015 2.600000e+001 5.800000e+001
      vertex   0.000000e+000 2.600000e+001 6.300000e+001
    endloop
  endfacet
  facet normal 0.000000e+000 0.000000e+000 1.000000e+000
    outer loop
      vertex   0.000000e+000 3.600000e+001 2.800000e+001
      vertex   -1.300000e+001 3.600000e+001 2.800000e+001
      vertex   0.000000e+000 2.800000e+001 2.800000e+001
    endloop
  endfacet
  facet normal 0.000000e+000 0.000000e+000 1.000000e+000
    outer loop
      vertex   0.000000e+000 2.800000e+001 2.800000e+001
      vertex   -1.300000e+001 3.600000e+001 2.800000e+001
      vertex   -1.300000e+001 2.800000e+001 2.800000e+001
    endloop
  endfacet
  facet normal 0.000000e+000 1.000000e+000 -0.000000e+000
    outer loop
      vertex   -2.220446e-015 5.000000e+000 8.000000e+000
      vertex   -1.300000e+001 5.000000e+000 8.000000e+000
      vertex   -2.220446e-015 5.000000e+000 1.000000e+001
    endloop
  endfacet
  facet normal 0.000000e+000 1.000000e+000 -0.000000e+000
    outer loop
      vertex   -2.220446e-015 5.000000e+000 1.000000e+001
      vertex   -1.300000e+001 5.000000e+000 8.000000e+000
      vertex   -1.300000e+001 5.000000e+000 1.000000e+001
    endloop
  endfacet
  facet normal 0.000000e+000 -0.000000e+000 -1.000000e+000
    outer loop
      vertex   -1.300000e+001 5.000000e+000 8.000000e+000
      vertex   -2.220446e-015 5.000000e+000 8.000000e+000
      vertex   -1.300000e+001 2.220446e-015 8.000000e+000
    endloop
  endfacet
  facet normal 0.000000e+000 0.000000e+000 -1.000000e+000
    outer loop
      vertex   -1.300000e+001 2.220446e-015 8.000000e+000
      vertex   -2.220446e-015 5.000000e+000 8.000000e+000
      vertex   0.000000e+000 2.220446e-015 8.000000e+000
    endloop
  endfacet
  facet normal 0.000000e+000 -1.000000e+000 0.000000e+000
    outer loop
      vertex   -1.300000e+001 3.000000e+001 8.000000e+000
      vertex   -6.661338e-015 3.000000e+001 8.000000e+000
      vertex   -1.300000e+001 3.000000e+001 1.000000e+001
    endloop
  endfacet
  facet normal 0.000000e+000 -1.000000e+000 0.000000e+000
    outer loop
      vertex   -1.300000e+001 3.000000e+001 1.000000e+001
      vertex   -6.661338e-015 3.000000e+001 8.000000e+000
      vertex   -6.661338e-015 3.000000e+001 1.000000e+001
    endloop
  endfacet
  facet normal 0.000000e+000 -0.000000e+000 1.000000e+000
    outer loop
      vertex   -1.300000e+001 3.000000e+001 1.000000e+001
      vertex   -6.661338e-015 3.000000e+001 1.000000e+001
      vertex   -1.300000e+001 3.500000e+001 1.000000e+001
    endloop
  endfacet
  facet normal -0.000000e+000 0.000000e+000 1.000000e+000
    outer loop
      vertex   -1.300000e+001 3.500000e+001 1.000000e+001
      vertex   -6.661338e-015 3.000000e+001 1.000000e+001
      vertex   0.000000e+000 3.500000e+001 1.000000e+001
    endloop
  endfacet
  facet normal 0.000000e+000 0.000000e+000 -1.000000e+000
    outer loop
      vertex   -6.661338e-015 3.000000e+001 8.000000e+000
      vertex   -1.300000e+001 3.000000e+001 8.000000e+000
      vertex   0.000000e+000 3.500000e+001 8.000000e+000
    endloop
  endfacet
  facet normal -0.000000e+000 0.000000e+000 -1.000000e+000
    outer loop
      vertex   0.000000e+000 3.500000e+001 8.000000e+000
      vertex   -1.300000e+001 3.000000e+001 8.000000e+000
      vertex   -1.300000e+001 3.500000e+001 8.000000e+000
    endloop
  endfacet
  facet normal 0.000000e+000 0.000000e+000 1.000000e+000
    outer loop
      vertex   -2.220446e-015 5.000000e+000 1.000000e+001
      vertex   -1.300000e+001 5.000000e+000 1.000000e+001
      vertex   0.000000e+000 2.220446e-015 1.000000e+001
    endloop
  endfacet
  facet normal 0.000000e+000 0.000000e+000 1.000000e+000
    outer loop
      vertex   0.000000e+000 2.220446e-015 1.000000e+001
      vertex   -1.300000e+001 5.000000e+000 1.000000e+001
      vertex   -1.300000e+001 2.220446e-015 1.000000e+001
    endloop
  endfacet
  facet normal -0.000000e+000 -1.000000e+000 -0.000000e+000
    outer loop
      vertex   0.000000e+000 3.500000e+001 8.000000e+000
      vertex   -1.300000e+001 3.500000e+001 8.000000e+000
      vertex   0.000000e+000 3.500000e+001 0.000000e+000
    endloop
  endfacet
  facet normal -0.000000e+000 -1.000000e+000 -0.000000e+000
    outer loop
      vertex   0.000000e+000 3.500000e+001 0.000000e+000
      vertex   -1.300000e+001 3.500000e+001 8.000000e+000
      vertex   -1.300000e+001 3.500000e+001 0.000000e+000
    endloop
  endfacet
  facet normal -0.000000e+000 -1.000000e+000 -0.000000e+000
    outer loop
      vertex   0.000000e+000 3.500000e+001 2.600000e+001
      vertex   -1.300000e+001 3.500000e+001 2.600000e+001
      vertex   0.000000e+000 3.500000e+001 1.000000e+001
    endloop
  endfacet
  facet normal -0.000000e+000 -1.000000e+000 -0.000000e+000
    outer loop
      vertex   0.000000e+000 3.500000e+001 1.000000e+001
      vertex   -1.300000e+001 3.500000e+001 2.600000e+001
      vertex   -1.300000e+001 3.500000e+001 1.000000e+001
    endloop
  endfacet
endsolid
